<svg xmlns="http://www.w3.org/2000/svg" viewBox="0 0 64 64" width="64" height="64">
  <rect width="64" height="64" rx="14" fill="#fafaf9"/>
  <g transform="translate(8, 4)">
    <!-- Top person -->
    <circle cx="24" cy="6" r="5" fill="#2d5016"/>
    <path d="M24 12C19 12 15 16 15 20L15 24C15 25.5 16 26.5 17.5 26.5L30.5 26.5C32 26.5 33 25.5 33 24L33 20C33 16 29 12 24 12Z" fill="#2d5016"/>
    <!-- Bottom person -->
    <circle cx="24" cy="50" r="5" fill="#2d5016"/>
    <path d="M24 44C19 44 15 40 15 36L15 32C15 30.5 16 29.5 17.5 29.5L30.5 29.5C32 29.5 33 30.5 33 32L33 36C33 40 29 44 24 44Z" fill="#2d5016"/>
    <!-- Left person -->
    <circle cx="3" cy="28" r="5" fill="#2d5016"/>
    <path d="M9 28C9 23 5 19 1 19L-2 19C-3.5 19 -4.5 20 -4.5 21.5L-4.5 34.5C-4.5 36 -3.5 37 -2 37L1 37C5 37 9 33 9 28Z" fill="#2d5016"/>
    <!-- Right person -->
    <circle cx="45" cy="28" r="5" fill="#2d5016"/>
    <path d="M39 28C39 23 43 19 47 19L50 19C51.5 19 52.5 20 52.5 21.5L52.5 34.5C52.5 36 51.5 37 50 37L47 37C43 37 39 33 39 28Z" fill="#2d5016"/>
    <!-- Center overlap circles -->
    <circle cx="24" cy="22" r="7" fill="#5f8f4a" opacity="0.25"/>
    <circle cx="24" cy="34" r="7" fill="#5f8f4a" opacity="0.25"/>
    <circle cx="15" cy="28" r="7" fill="#5f8f4a" opacity="0.25"/>
    <circle cx="33" cy="28" r="7" fill="#5f8f4a" opacity="0.25"/>
  </g>
</svg>
